<?xml version="1.0" encoding="UTF-8" standalone="no"?><!DOCTYPE svg PUBLIC "-//W3C//DTD SVG 1.1//EN" "http://www.w3.org/Graphics/SVG/1.1/DTD/svg11.dtd"><svg width="100%" height="100%" viewBox="0 0 34 21" version="1.1" xmlns="http://www.w3.org/2000/svg" xmlns:xlink="http://www.w3.org/1999/xlink" xml:space="preserve" xmlns:serif="http://www.serif.com/" style="fill-rule:evenodd;clip-rule:evenodd;stroke-linejoin:round;stroke-miterlimit:2;"><path d="M33.299,0.047l0,20.855l-0.004,0.004l-33.266,0l0,-20.859l33.27,0Z" style="fill:#354ea0;fill-rule:nonzero;"/><path d="M33.299,18.73l0,2.172l-0.004,0.004l-3.463,0l-10.21,-6.402l-1.022,-0.641l-1.206,-0.758l-0.405,-0.254l-1.227,-0.767l-0.457,-0.289l-0.385,-0.239l-0.772,-0.482l-0.249,-0.158l-0.377,-0.235l-3.626,-2.277l-1.63,-1.021l-8.237,-5.163l0,-2.173l0.028,-0.041l0.065,0.041l3.369,0l10.408,6.523l1.021,0.643l0.274,0.17l1.632,1.021l0.163,0.104l0.625,0.392l0.986,0.617l0.167,0.108l0.855,0.535l0.834,0.521l2.239,1.403l1.631,1.021l8.973,5.625Z" style="fill:#faf1f7;fill-rule:nonzero;"/><path d="M33.302,20.842l0.007,0.076l-2.226,-0.012l-11.461,-7.186l-0.977,-0.615l-0.045,-0.027l-0.986,-0.617l-0.596,-0.377l-1.088,-0.682l-1.01,-0.629l-0.143,-0.092l-0.629,-0.396l-0.249,-0.154l-2.752,-1.727l-1.627,-1.021l-9.491,-5.952l0,-1.431l0.028,0.006l0.065,0.041l11.704,7.336l1.627,1.021l0.446,0.279l1.021,0.643l0.385,0.24l0.625,0.393l1.153,0.722l1.517,0.95l0.167,0.107l0.555,0.346l0.3,0.189l1.328,0.832l12.352,7.737Z" style="fill:#ef3c37;fill-rule:nonzero;"/><path d="M33.299,0.459l0,2.17l-7.587,4.754l-1.627,1.021l-3.629,2.277l-0.834,0.52l-0.855,0.537l-0.167,0.105l-0.385,0.241l-0.601,0.377l-0.625,0.39l-0.405,0.254l-1.664,1.043l-1.021,0.643l-9.758,6.115l-4.112,0l0,-1.766l9.626,-6.035l1.627,-1.021l2.24,-1.403l0.377,-0.236l0.249,-0.16l0.772,-0.483l0.385,-0.236l1.684,-1.058l0.163,-0.104l1.448,-0.906l0.184,-0.115l0.838,-0.526l10.865,-6.81l2.55,0l0.262,0.412Z" style="fill:#faf1f7;fill-rule:nonzero;"/><path d="M33.213,0.566l-10.873,6.817l-1.631,1.021l-1.087,0.684l-0.855,0.537l-0.167,0.105l-1.517,0.951l-1.153,0.721l-0.625,0.393l-0.385,0.24l-0.077,0.049l-0.944,0.593l-0.687,0.428l-12.435,7.801l-0.748,0l0,-0.977l10.877,-6.824l1.631,-1.021l1.362,-0.854l0.249,-0.156l0.629,-0.393l0.143,-0.093l1.01,-0.629l1.684,-1.059l0.789,-0.496l0.197,-0.121l1.022,-0.643l0.412,-0.257l11.699,-7.336l1.566,0l0.003,0.457l-0.089,0.062Z" style="fill:#ef3c37;fill-rule:nonzero;"/><rect x="0" y="7.383" width="33.315" height="5.722" style="fill:#fff;fill-rule:nonzero;"/><rect x="0" y="8.404" width="33.315" height="3.68" style="fill:#ef3c37;fill-rule:nonzero;"/><rect x="14.92" y="0.047" width="3.68" height="20.859" style="fill:#d01f33;fill-rule:nonzero;"/><path d="M18.591,13.105l1.022,0l0,7.801l-5.723,0l0,-7.801l1.022,0l0,-5.722l-1.022,0l0,-7.336l5.723,0l0,7.336l-1.022,0l0,5.722Z" style="fill:#fff;fill-rule:nonzero;"/><rect x="14.893" y="0.047" width="3.717" height="20.859" style="fill:#ef3c37;fill-rule:nonzero;"/></svg>